<?xml version="1.0" standalone="no"?><!DOCTYPE svg PUBLIC "-//W3C//DTD SVG 1.1//EN" "http://www.w3.org/Graphics/SVG/1.1/DTD/svg11.dtd"><svg t="1567050108130" class="icon" viewBox="0 0 1024 1024" version="1.1" xmlns="http://www.w3.org/2000/svg" p-id="4476" xmlns:xlink="http://www.w3.org/1999/xlink" width="200" height="200"><defs><style type="text/css"></style></defs><path d="M1012.575655 472.579204c-53.340964-87.237724-125.061353-157.332927-215.151161-210.283605-90.095812-52.95268-185.233307-79.432023-285.424494-79.432023s-195.332684 26.469335-285.428497 79.432023C136.47369 315.246278 64.757303 385.34148 11.424345 472.579204 3.808782 485.910943 0 499.054544 0 512.010007c0 12.955464 3.808782 26.099065 11.424345 39.4268 53.332958 87.241727 125.049345 157.342934 215.147158 210.281604 90.095812 52.958685 185.23731 79.418012 285.428497 79.418013 100.193188 0 195.330683-26.371263 285.424494-79.129802 90.089808-52.76054 161.822206-122.953814 215.151161-210.569815 7.617564-13.327735 11.424345-26.465332 11.424345-39.4268 0-12.955464-3.806781-26.099065-11.424345-39.430803z m-623.155196-156.288163c34.092904-34.092904 74.948748-51.14536 122.573537-51.14536 7.615563 0 14.096297 2.673953 19.432194 8.003846 5.327892 5.331895 8.005848 11.810627 8.005848 19.428192 0 7.623569-2.677956 14.098298-7.993839 19.422187-5.327892 5.337899-11.812629 8.003847-19.430193 8.003847-32.75993 0-60.768389 11.624491-84.003362 34.857462-23.242978 23.246981-34.857462 51.243432-34.857462 84.003362 0 7.627572-2.673953 14.098298-8.003847 19.434196-5.337899 5.339901-11.810627 8.003847-19.428192 8.003846-7.623569 0-14.098298-2.66995-19.434196-8.003846-5.337899-5.335898-8.003847-11.81463-8.003846-19.434196 0-47.614781 17.052456-88.478631 51.143358-122.573536z m370.868909 382.299257c-76.383796 46.273802-159.14425 69.424713-248.289368 69.424713-89.143116 0-171.90357-23.136901-248.283363-69.424713s-139.904196-108.479241-190.569205-186.580291c57.904297-89.907675 130.475308-157.150794 217.713032-201.713345-23.236974 39.612936-34.859464 82.474245-34.859463 128.565913 0 70.483486 25.0523 130.753511 75.142889 180.85611s110.382631 75.14289 180.85611 75.14289c70.479483 0 130.753511-25.054301 180.85611-75.14289s75.144891-110.372624 75.144891-180.85611c0-46.091669-11.624491-88.958982-34.863467-128.565913 87.233722 44.562552 159.808735 111.811675 217.711031 201.713345-50.657003 78.10105-114.175402 140.292479-190.559197 186.580291z" p-id="4477"></path></svg>