<?xml version="1.0" standalone="no"?><!DOCTYPE svg PUBLIC "-//W3C//DTD SVG 1.1//EN" "http://www.w3.org/Graphics/SVG/1.1/DTD/svg11.dtd"><svg t="1566788162196" class="icon" viewBox="0 0 1024 1024" version="1.1" xmlns="http://www.w3.org/2000/svg" p-id="2058" xmlns:xlink="http://www.w3.org/1999/xlink" width="200" height="200"><defs><style type="text/css"></style></defs><path d="M512 1024C229.229714 1024 0 794.770286 0 512S229.229714 0 512 0 1024 229.229714 1024 512 794.770286 1024 512 1024z m356.7616-713.1136a18.870857 18.870857 0 0 1-3.423086-0.351086l-90.492343-20.509257-90.463085-20.567771a14.5408 14.5408 0 0 1-8.8064-5.997715l-55.998172-72.938057-56.466285-73.610971a14.7456 14.7456 0 0 1 5.675885-22.469486l-0.058514-0.058514 55.559314-24.927086 17.144686-7.665371a468.085029 468.085029 0 0 0-271.36 4.183771l1.755429 0.555886 57.870628 18.753828a14.833371 14.833371 0 0 1 9.567086 18.607543 14.628571 14.628571 0 0 1-1.755429 3.510857l-47.864685 78.848-48.128 79.286858a14.979657 14.979657 0 0 1-7.840915 6.290285l-87.683657 30.251886-87.683657 30.134857a14.7456 14.7456 0 0 1-19.573029-12.522057l-6.026971-60.591543-1.755429-17.905371a467.236571 467.236571 0 0 0-82.651428 215.800685c-2.925714 25.044114-3.832686 50.3808-2.720914 75.717486l8.455314-12.756114 33.616457-50.7904a14.687086 14.687086 0 0 1 23.083886-1.960229l63.517257 67.671772 63.400228 67.671771c2.516114 2.633143 3.861943 5.997714 4.008229 9.362286l5.5296 92.3648 5.588114 92.5696a14.804114 14.804114 0 0 1-18.461257 15.272228L175.542857 801.909029l-33.879771-5.880686 4.213028 5.383314a465.773714 465.773714 0 0 0 258.896457 165.0688l-20.860342-28.203886-36.161829-48.917942a14.716343 14.716343 0 0 1 5.9392-22.3232v-0.058515l85.372343-36.4544 85.226057-36.4544a14.657829 14.657829 0 0 1 10.503314-0.497371l88.444343 26.302171 88.853943 26.448457a14.774857 14.774857 0 0 1 10.005943 18.402743 13.224229 13.224229 0 0 1-1.609143 3.715657l-30.076343 52.194743-17.349486 30.368915a466.856229 466.856229 0 0 0 129.726172-72.616229 464.808229 464.808229 0 0 0 111.674514-127.093029l-14.891886 4.9152-57.724342 19.368229a14.921143 14.921143 0 0 1-18.783086-9.303771 33.645714 33.645714 0 0 1-0.672914-3.335315l-8.3968-92.394057-8.3968-92.3648a14.833371 14.833371 0 0 1 2.574628-9.713371l52.545829-76.419657 52.545828-76.419658a14.862629 14.862629 0 0 1 23.171657-1.462857v-0.058514l40.872229 45.143771 0.351086 0.4096a464.749714 464.749714 0 0 0-94.968686-234.408228l0.146286 9.771886 0.555885 60.884114a14.687086 14.687086 0 0 1-14.628571 14.979657z m-164.922514 255.882971l-84.523886 66.823315-84.670171 66.852571a14.804114 14.804114 0 0 1-18.110172 0.2048l-88.941714-59.333486-89.731657-59.772342a14.804114 14.804114 0 0 1-5.997715-16.384l29.110858-103.745829 29.110857-103.775086a14.774857 14.774857 0 0 1 13.984914-10.795885l107.402971-4.330058 107.695543-4.417828a14.921143 14.921143 0 0 1 14.687086 10.093714l37.244343 100.673829 37.507657 101.112685a14.833371 14.833371 0 0 1-4.768914 16.735086v0.058514z" p-id="2059" fill="#2c2c2c"></path></svg>